<svg version="1.1" viewBox="0.0 0.0 100.0 100.0" fill="none" stroke="none" stroke-linecap="square" stroke-miterlimit="10" xmlns:xlink="http://www.w3.org/1999/xlink" xmlns="http://www.w3.org/2000/svg"><clipPath id="p.0"><path d="m0 0l100.0 0l0 100.0l-100.0 0l0 -100.0z" clip-rule="nonzero"/></clipPath><g clip-path="url(#p.0)"><path fill="#000000" fill-opacity="0.0" d="m0 0l100.0 0l0 100.0l-100.0 0z" fill-rule="evenodd"/><path fill="#b6d7a8" d="m30.301561 60.09943c10.301836 34.33202 -35.045933 20.223751 -22.440945 -38.83465c57.486877 18.610891 47.04724 64.91207 22.440945 38.83465z" fill-rule="evenodd"/><path stroke="#ffffff" stroke-width="1.0" stroke-linejoin="round" stroke-linecap="butt" d="m30.301561 60.09943c10.301836 34.33202 -35.045933 20.223751 -22.440945 -38.83465c57.486877 18.610891 47.04724 64.91207 22.440945 38.83465z" fill-rule="evenodd"/><path fill="#b6d7a8" d="m50.274174 48.47346c-8.254593 34.864834 -40.447506 -0.03215027 0 -44.834644c40.447506 44.8668 8.254597 79.7126 0 44.834644z" fill-rule="evenodd"/><path stroke="#ffffff" stroke-width="1.0" stroke-linejoin="round" stroke-linecap="butt" d="m50.274174 48.47346c-8.254593 34.864834 -40.447506 -0.03215027 0 -44.834644c40.447506 44.8668 8.254597 79.7126 0 44.834644z" fill-rule="evenodd"/><path fill="#000000" fill-opacity="0.0" d="m7.860617 21.264784l13.007874 22.141733" fill-rule="evenodd"/><path stroke="#ffffff" stroke-width="1.0" stroke-linejoin="round" stroke-linecap="butt" d="m7.860617 21.264784l13.007874 22.141733" fill-rule="evenodd"/><path fill="#000000" fill-opacity="0.0" d="m50.276367 4.4289374l0 40.472443" fill-rule="evenodd"/><path stroke="#ffffff" stroke-width="1.0" stroke-linejoin="round" stroke-linecap="butt" d="m50.276367 4.4289374l0 40.472443" fill-rule="evenodd"/><path fill="#000000" fill-opacity="0.0" d="m92.15319 21.263714l-12.472443 21.6063" fill-rule="evenodd"/><path stroke="#ffffff" stroke-width="1.0" stroke-linejoin="round" stroke-linecap="butt" d="m92.15319 21.263714l-12.472443 21.6063" fill-rule="evenodd"/><path fill="#b6d7a8" d="m50.2729 58.601196c-8.254593 10.631233 -40.447506 -0.032154083 0 -13.677166c40.447506 13.70932 8.254593 24.321522 0 13.677166z" fill-rule="evenodd"/><path fill="#b6d7a8" d="m69.73587 60.098362c-24.581367 26.070866 -35.013783 -20.255909 22.41732 -38.83465c12.596458 59.09055 -32.707348 73.17323 -22.41732 38.83465z" fill-rule="evenodd"/><path stroke="#ffffff" stroke-width="1.0" stroke-linejoin="round" stroke-linecap="butt" d="m69.73587 60.098362c-24.581367 26.070866 -35.013783 -20.255909 22.41732 -38.83465c12.596458 59.09055 -32.707348 73.17323 -22.41732 38.83465z" fill-rule="evenodd"/><path fill="#9fc5e8" d="m95.18943 48.030178l0 0c0 26.701008 -20.17891 48.346455 -45.07086 48.346455c-24.891953 0 -45.070866 -21.645447 -45.070866 -48.346455l0 0c29.43461 9.204521 60.70712 9.204521 90.14173 0z" fill-rule="evenodd"/><path stroke="#ffffff" stroke-width="1.0" stroke-linejoin="round" stroke-linecap="butt" d="m95.18943 48.030178l0 0c0 26.701008 -20.17891 48.346455 -45.07086 48.346455c-24.891953 0 -45.070866 -21.645447 -45.070866 -48.346455l0 0c29.43461 9.204521 60.70712 9.204521 90.14173 0z" fill-rule="evenodd"/><path fill="#000000" fill-opacity="0.0" d="m92.165085 21.273659l-13.543304 21.385826" fill-rule="evenodd"/><path stroke="#ffffff" stroke-width="1.0" stroke-linejoin="round" stroke-linecap="butt" d="m92.165085 21.273659l-13.543304 21.385826" fill-rule="evenodd"/></g></svg>